<?xml version="1.0" ?><!DOCTYPE svg  PUBLIC '-//W3C//DTD SVG 1.1//EN'  'http://www.w3.org/Graphics/SVG/1.1/DTD/svg11.dtd'><svg enable-background="new 0 0 512 512" height="512px" id="alien" version="1.1" viewBox="0 0 512 512" width="512px" xml:space="preserve" xmlns="http://www.w3.org/2000/svg" xmlns:xlink="http://www.w3.org/1999/xlink"><path d="M351.734,301.913H139.77v35.334h211.965c9.717,0,17.667-7.95,17.667-17.667S361.451,301.913,351.734,301.913  z" fill="#466C6F"/><path d="M469.425,358.611H139.77c-0.256,0.055,0.389,35.055,0,35.334h329.655c9.717,0,17.667-7.95,17.667-17.667  S479.142,358.611,469.425,358.611z" fill="#466C6F"/><path d="M470.087,238.811H139.77v48.142h330.317c13.239,0,24.071-10.832,24.071-24.071  S483.326,238.811,470.087,238.811z" fill="#5AA096"/><path d="M430.354,188.517H139.77v35.334h290.584c9.717,0,17.667-7.95,17.667-17.667S440.07,188.517,430.354,188.517z  " fill="#466C6F"/><path d="M364.937,125.415H139.77v48.143h225.167c13.239,0,24.071-10.832,24.071-24.071  S378.176,125.415,364.937,125.415z" fill="#5AA096"/><path d="M210.576,295.945v63.665c0,7.944,6.501,14.444,14.445,14.444s14.445-6.5,14.445-14.444v-63.665H210.576z" fill="#FF7143"/><path d="M242.142,387.965c-7.944,0-14.445,6.501-14.445,14.445v12.932v4.188c0,7.944-6.5,14.444-14.444,14.444  c-7.945,0-14.445-6.5-14.445-14.444v-18.099V295.945h-28.89V419.53c0,0.355,0.027,0.704,0.053,1.054  c0.004,0.071,0.008,0.144,0.012,0.216c0.008,0.089,0.011,0.179,0.021,0.267c1.349,22.719,20.192,40.729,43.25,40.729  c23.057,0,41.9-18.01,43.25-40.729c0.009-0.088,0.012-0.178,0.02-0.267c0.005-0.072,0.008-0.145,0.012-0.216  c0.025-0.35,0.054-0.698,0.054-1.054v-17.12C256.587,394.466,250.086,387.965,242.142,387.965z" fill="#FF7143"/><path d="M132.979,295.945c-0.324,1.197-0.513,2.449-0.513,3.745V448.42c0,7.945,6.5,14.445,14.444,14.445  c7.945,0,14.445-6.5,14.445-14.445V299.69c0-1.296-0.188-2.548-0.513-3.745H132.979z" fill="#FF7143"/><path d="M95.017,295.945v105.486v18.099c0,7.944-6.5,14.444-14.445,14.444c-7.944,0-14.444-6.5-14.444-14.444v-4.188  V402.41c0-7.944-6.501-14.445-14.445-14.445s-14.445,6.501-14.445,14.445v17.12c0,0.355,0.028,0.704,0.054,1.054  c0.004,0.071,0.008,0.144,0.012,0.216c0.008,0.089,0.011,0.179,0.021,0.267c1.349,22.719,20.192,40.729,43.249,40.729  c23.058,0,41.901-18.01,43.25-40.729c0.01-0.088,0.013-0.178,0.021-0.267c0.004-0.072,0.008-0.145,0.011-0.216  c0.025-0.35,0.054-0.698,0.054-1.054V295.945H95.017z" fill="#FF7143"/><path d="M54.356,295.945v63.665c0,7.944,6.5,14.444,14.445,14.444c7.944,0,14.445-6.5,14.445-14.444v-63.665H54.356z  " fill="#FF7143"/><path d="M239.349,275.256c22.501-23.21,36.362-54.845,36.362-89.725c0-71.209-57.726-128.935-128.935-128.935  S17.842,114.322,17.842,185.531c0,34.73,13.743,66.24,36.073,89.422L239.349,275.256z" fill="#E0E0E0"/><path d="M224.339,259.964c19.32-19.638,31.246-46.575,31.246-76.301c0-60.093-48.715-108.809-108.809-108.809  S37.968,123.57,37.968,183.663c0,29.726,11.926,56.663,31.247,76.301H224.339z" fill="#F4F4F4"/><path d="M257.542,296.487l-221.433-0.361c-5.492-0.008-9.979-4.508-9.972-10l0.002-1.229  c0.008-5.493,4.508-9.98,10-9.972l221.434,0.36c5.492,0.008,9.979,4.508,9.972,10.001l-0.002,1.229  C267.535,292.008,263.034,296.495,257.542,296.487z" fill="#52C9D5"/><path d="M36.109,296.126l221.433,0.361c5.362,0.008,9.768-4.273,9.98-9.587l-241.366-0.39  C26.354,291.825,30.747,296.118,36.109,296.126z" fill="#49BAC0"/><circle cx="414.182" cy="85.841" fill="#66B2B2" r="20.701"/><circle cx="221.582" cy="69.841" fill="#66B2B2" r="20.701"/><circle cx="350.125" cy="104.043" fill="#66B2B2" r="9.742"/><circle cx="448.565" cy="395.082" fill="#66B2B2" r="9.741"/><circle cx="81.322" cy="125.994" fill="#66B2B2" r="8.848"/><circle cx="90.953" cy="389.213" fill="#66B2B2" r="8.848"/><polygon fill="#FFD326" points="467.354,246.985 472.547,257.505 484.158,259.192 475.756,267.382 477.739,278.945 467.354,273.486   456.97,278.945 458.953,267.382 450.552,259.192 462.162,257.505 "/><polygon fill="#FFD326" points="49.354,49.587 54.547,60.109 66.158,61.796 57.756,69.985 59.739,81.549 49.354,76.089   38.97,81.549 40.953,69.985 32.552,61.796 44.162,60.109 "/><polygon fill="#FFD326" points="414.354,133.587 419.547,144.109 431.158,145.796 422.756,153.985 424.739,165.549 414.354,160.089   403.97,165.549 405.953,153.985 397.552,145.796 409.162,144.109 "/><path d="M75.77,241.556c0.049,0.634,0.106,1.265,0.181,1.892c0.034,0.296,0.072,0.591,0.113,0.886  c0.086,0.63,0.187,1.256,0.298,1.878c0.046,0.252,0.087,0.505,0.136,0.756c0.166,0.84,0.349,1.673,0.559,2.496  c0.005,0.018,0.008,0.037,0.013,0.054c0.226,0.879,0.479,1.748,0.755,2.606c0.047,0.146,0.1,0.29,0.148,0.435  c0.23,0.696,0.476,1.385,0.737,2.065c0.076,0.198,0.155,0.395,0.234,0.592c0.261,0.651,0.536,1.294,0.825,1.93  c0.076,0.168,0.15,0.336,0.229,0.503c0.364,0.776,0.745,1.545,1.15,2.298c0.003,0.006,0.005,0.012,0.008,0.017h0.001  c3.17,5.886,7.571,11.02,12.851,15.055l108.518,0.177c5.383-4.062,9.866-9.26,13.083-15.231l0,0  c0.001-0.002,0.002-0.005,0.004-0.008c0.407-0.756,0.79-1.527,1.155-2.309c0.077-0.165,0.151-0.332,0.227-0.498  c0.29-0.638,0.565-1.282,0.827-1.935c0.078-0.196,0.157-0.391,0.232-0.588c0.263-0.682,0.509-1.371,0.739-2.067  c0.048-0.145,0.101-0.289,0.147-0.435c0.275-0.859,0.529-1.727,0.755-2.606c0.005-0.018,0.008-0.036,0.013-0.054  c0.21-0.823,0.394-1.656,0.559-2.496c0.049-0.251,0.091-0.504,0.136-0.756c0.111-0.622,0.212-1.248,0.299-1.878  c0.04-0.295,0.078-0.59,0.113-0.886c0.073-0.627,0.132-1.258,0.18-1.892c0.021-0.272,0.047-0.542,0.063-0.816  c0.053-0.898,0.086-1.8,0.086-2.711c0-0.013-0.001-0.025-0.001-0.038c-0.001-0.763-0.021-1.521-0.059-2.274  c-0.013-0.262-0.038-0.521-0.056-0.781c-0.033-0.502-0.065-1.005-0.115-1.502c-0.03-0.306-0.073-0.609-0.109-0.914  c-0.054-0.448-0.105-0.897-0.172-1.341c-0.048-0.32-0.106-0.636-0.161-0.954c-0.071-0.424-0.144-0.848-0.228-1.268  c-0.064-0.325-0.139-0.646-0.21-0.968c-0.091-0.406-0.182-0.813-0.282-1.215c-0.082-0.326-0.171-0.648-0.26-0.971  c-0.107-0.393-0.217-0.785-0.335-1.174c-0.098-0.323-0.201-0.644-0.306-0.964c-0.125-0.382-0.254-0.763-0.389-1.141  c-0.113-0.319-0.23-0.635-0.351-0.951c-0.142-0.372-0.288-0.741-0.439-1.108c-0.129-0.313-0.26-0.625-0.396-0.935  c-0.158-0.362-0.322-0.721-0.489-1.078c-0.143-0.306-0.287-0.611-0.437-0.914c-0.175-0.354-0.357-0.704-0.541-1.053  c-0.156-0.296-0.311-0.593-0.473-0.885c-0.193-0.349-0.395-0.69-0.596-1.033c-0.168-0.285-0.333-0.571-0.506-0.852  c-0.211-0.341-0.431-0.676-0.65-1.011c-0.178-0.273-0.353-0.549-0.537-0.818c-0.23-0.338-0.472-0.667-0.711-0.999  c-0.186-0.256-0.366-0.517-0.557-0.769c-0.265-0.352-0.542-0.694-0.816-1.039c-0.177-0.221-0.348-0.447-0.527-0.665  c-0.455-0.548-0.921-1.086-1.399-1.613c-0.167-0.185-0.345-0.361-0.515-0.543c-0.323-0.344-0.645-0.69-0.978-1.024  c-0.229-0.229-0.466-0.449-0.699-0.674c-0.286-0.276-0.57-0.556-0.864-0.824c-0.253-0.232-0.514-0.454-0.771-0.681  c-0.285-0.25-0.568-0.501-0.859-0.744c-0.271-0.226-0.548-0.444-0.824-0.664c-0.288-0.23-0.576-0.461-0.87-0.685  c-0.286-0.218-0.577-0.427-0.868-0.638c-0.295-0.213-0.589-0.427-0.889-0.633c-0.299-0.207-0.604-0.407-0.907-0.606  c-0.301-0.197-0.603-0.393-0.908-0.583c-0.312-0.195-0.627-0.384-0.944-0.571c-0.308-0.182-0.616-0.361-0.929-0.536  c-0.322-0.18-0.647-0.357-0.975-0.53c-0.315-0.167-0.633-0.33-0.953-0.49c-0.333-0.167-0.667-0.331-1.005-0.49  c-0.321-0.151-0.646-0.296-0.971-0.44c-0.344-0.152-0.688-0.304-1.037-0.448c-0.327-0.136-0.658-0.264-0.988-0.392  c-0.354-0.137-0.706-0.274-1.063-0.402c-0.335-0.12-0.673-0.231-1.011-0.344c-0.362-0.121-0.723-0.243-1.087-0.354  c-0.341-0.104-0.685-0.197-1.028-0.294c-0.37-0.104-0.738-0.211-1.111-0.306c-0.347-0.088-0.698-0.163-1.048-0.244  c-0.376-0.086-0.75-0.178-1.13-0.254c-0.352-0.072-0.709-0.128-1.064-0.191c-0.579-0.104-1.161-0.199-1.747-0.28  c-0.525-0.073-1.049-0.147-1.579-0.202v-16.493c5.042-2.254,8.561-7.304,8.561-13.183c0-7.978-6.468-14.445-14.445-14.445  s-14.445,6.467-14.445,14.445c0,6.287,4.023,11.62,9.63,13.605v15.82h-38.52v-15.82c5.606-1.985,9.63-7.318,9.63-13.605  c0-7.978-6.467-14.445-14.445-14.445c-7.978,0-14.444,6.467-14.444,14.445c0,5.879,3.519,10.929,8.56,13.183v16.325  c-0.001,0-0.002,0-0.003,0c-5.312,0.305-10.392,1.512-15.09,3.468c-0.017,0.007-0.035,0.014-0.052,0.021  c-0.592,0.247-1.174,0.51-1.753,0.781c-0.092,0.043-0.186,0.083-0.276,0.126c-0.528,0.251-1.048,0.517-1.564,0.787  c-0.139,0.072-0.279,0.141-0.417,0.214c-0.479,0.257-0.951,0.527-1.421,0.801c-0.168,0.097-0.339,0.191-0.505,0.291  c-0.443,0.265-0.878,0.542-1.312,0.821c-0.186,0.12-0.373,0.236-0.557,0.358c-0.412,0.273-0.815,0.557-1.218,0.843  c-0.197,0.141-0.396,0.278-0.591,0.422c-0.384,0.281-0.76,0.571-1.134,0.864c-0.205,0.161-0.411,0.32-0.614,0.483  c-0.355,0.289-0.705,0.584-1.053,0.883c-0.211,0.18-0.421,0.36-0.628,0.544c-0.333,0.295-0.659,0.598-0.982,0.902  c-0.211,0.199-0.422,0.398-0.63,0.601c-0.311,0.303-0.614,0.611-0.916,0.923c-0.21,0.216-0.418,0.434-0.624,0.654  c-0.288,0.31-0.571,0.623-0.852,0.94c-0.207,0.235-0.413,0.471-0.615,0.71c-0.268,0.315-0.53,0.633-0.79,0.956  c-0.201,0.251-0.4,0.504-0.598,0.76c-0.248,0.321-0.491,0.646-0.73,0.973c-0.196,0.268-0.388,0.539-0.578,0.811  c-0.228,0.326-0.452,0.653-0.672,0.985c-0.188,0.285-0.372,0.573-0.555,0.862c-0.207,0.33-0.412,0.66-0.611,0.995  c-0.18,0.301-0.354,0.606-0.526,0.912c-0.188,0.333-0.376,0.668-0.557,1.007c-0.169,0.316-0.33,0.635-0.491,0.956  c-0.171,0.337-0.341,0.675-0.503,1.018c-0.157,0.331-0.306,0.667-0.455,1.001c-0.151,0.34-0.304,0.68-0.446,1.024  c-0.145,0.347-0.279,0.698-0.416,1.049c-0.133,0.342-0.267,0.682-0.392,1.027c-0.131,0.362-0.25,0.729-0.372,1.094  c-0.114,0.342-0.231,0.683-0.337,1.029c-0.116,0.377-0.22,0.76-0.326,1.141c-0.096,0.342-0.195,0.683-0.283,1.027  c-0.1,0.395-0.187,0.794-0.276,1.192c-0.076,0.338-0.158,0.675-0.228,1.017c-0.084,0.414-0.152,0.833-0.226,1.25  c-0.058,0.333-0.122,0.663-0.173,0.998c-0.066,0.441-0.116,0.888-0.171,1.333c-0.038,0.317-0.085,0.631-0.117,0.949  c-0.05,0.498-0.081,1-0.115,1.502c-0.019,0.272-0.046,0.541-0.06,0.813c-0.038,0.754-0.058,1.512-0.059,2.274  c0,0.023-0.001,0.046-0.001,0.069c0,0.911,0.033,1.813,0.085,2.711C75.724,241.014,75.749,241.284,75.77,241.556z" fill="#EF6B19"/><path d="M179.411,191.735v-16.493c5.042-2.254,8.561-7.304,8.561-13.183c0-7.978-6.468-14.445-14.445-14.445  s-14.445,6.467-14.445,14.445c0,6.287,4.023,11.62,9.63,13.605v15.82h-38.52v-15.82c5.606-1.985,9.63-7.318,9.63-13.605  c0-7.978-6.467-14.445-14.445-14.445c-7.978,0-14.444,6.467-14.444,14.445c0,5.879,3.519,10.929,8.56,13.183v16.325  c-24.367,1.399-43.869,21.76-43.869,46.462c0,7.918,2.008,15.389,5.533,21.935h134.452c3.525-6.545,5.534-14.016,5.534-21.935  C221.142,214.055,202.771,194.165,179.411,191.735z" fill="#FF7143"/></svg>